<svg width="289" height="243" viewBox="0 0 289 243" fill="none" xmlns="http://www.w3.org/2000/svg">
<path d="M239.375 15.122C260.2 30.368 268.425 59.32 276.65 86.732C284.7 114.298 292.925 140.632 286.45 164.04C279.975 187.602 258.8 208.238 233.775 221.944C208.75 235.65 179.875 242.272 151.175 242.272C122.3 242.118 93.775 235.034 66.125 222.098C38.65 209.162 12.05 190.22 3.475 166.35C-5.09999 142.326 4.00002 113.528 19.4 90.89C34.8 68.252 56.5 51.928 79.425 37.298C102.35 22.514 126.675 9.26999 155.725 3.57199C184.775 -2.12601 218.375 -0.278007 239.375 15.122Z" fill="#D9D9D9"/>
</svg>
