<svg width="46" height="36" viewBox="0 0 46 36" fill="none" xmlns="http://www.w3.org/2000/svg">
<path d="M9.664 35.408C9.568 35.504 9.472 35.552 9.376 35.552C9.12 35.552 8.992 35.216 8.992 34.544C8.992 34.096 9.056 33.616 9.184 33.104C9.344 32.624 9.552 32.272 9.808 32.048C10.416 31.504 11.216 31.056 12.208 30.704C13.232 30.352 14.32 30.064 15.472 29.84C14.768 29.648 14.16 29.216 13.648 28.544C13.168 27.84 12.928 27.04 12.928 26.144C12.928 25.088 13.184 23.872 13.696 22.496C14.24 21.088 14.944 19.616 15.808 18.08C16.704 16.544 17.68 15.008 18.736 13.472C19.792 11.936 20.848 10.496 21.904 9.152C22.992 7.808 23.984 6.64 24.88 5.648C22.8 5.744 20.96 5.888 19.36 6.08C17.792 6.24 16.688 6.352 16.048 6.416C14.672 6.576 13.264 6.848 11.824 7.232C10.384 7.616 9.04 8.08 7.792 8.624C6.576 9.136 5.584 9.696 4.816 10.304C4.08 10.88 3.712 11.456 3.712 12.032C3.712 12.192 3.808 12.336 4 12.464C4.192 12.592 4.4 12.656 4.624 12.656C4.72 12.752 4.768 12.832 4.768 12.896C4.768 13.056 4.592 13.104 4.24 13.04C3.888 12.976 3.44 12.768 2.896 12.416C2.384 12.032 1.92 11.584 1.504 11.072C1.12 10.56 0.928 10.112 0.928 9.728C0.928 9.088 1.296 8.496 2.032 7.952C2.8 7.376 3.808 6.864 5.056 6.416C6.336 5.936 7.76 5.536 9.328 5.216C10.896 4.864 12.496 4.592 14.128 4.4C15.344 4.24 16.832 4.112 18.592 4.016C20.352 3.888 22.224 3.824 24.208 3.824C24.592 3.824 24.976 3.84 25.36 3.872C25.744 3.872 26.144 3.872 26.56 3.872C26.368 3.68 26.272 3.456 26.272 3.2C26.272 2.816 26.48 2.432 26.896 2.048C27.312 1.632 27.776 1.248 28.288 0.896C28.832 0.543999 29.248 0.255999 29.536 0.0319996C29.824 0.0319996 30.256 0.112 30.832 0.271999C31.408 0.431999 31.936 0.639999 32.416 0.896C32.896 1.152 33.136 1.472 33.136 1.856C33.136 2.016 33.104 2.192 33.04 2.384C32.944 2.608 32.752 2.88 32.464 3.2C32.208 3.488 31.904 3.808 31.552 4.16C33.056 4.288 34.432 4.512 35.68 4.832C36.928 5.12 37.952 5.488 38.752 5.936C39.52 6.384 39.968 6.8 40.096 7.184C40.256 7.568 40.32 7.888 40.288 8.144C40.256 8.4 40.32 8.544 40.48 8.576C40.864 9.248 41.056 9.904 41.056 10.544C41.056 11.536 40.656 12.496 39.856 13.424C39.088 14.32 38.08 15.152 36.832 15.92C35.584 16.656 34.272 17.312 32.896 17.888C31.552 18.432 30.272 18.864 29.056 19.184C27.872 19.504 26.944 19.696 26.272 19.76C25.76 19.792 24.992 19.904 23.968 20.096C22.944 20.256 22 20.448 21.136 20.672C20.848 20.736 20.512 20.832 20.128 20.96C19.744 21.088 19.472 21.152 19.312 21.152C18.896 21.152 18.56 21.12 18.304 21.056C18.048 20.992 17.92 20.896 17.92 20.768C17.92 20.544 18.464 20.336 19.552 20.144C20.896 19.92 22.496 19.552 24.352 19.04C26.24 18.528 28.144 17.872 30.064 17.072C31.984 16.272 33.728 15.344 35.296 14.288C36.896 13.2 38.096 12 38.896 10.688C39.28 10.08 39.472 9.472 39.472 8.864C39.472 8.064 39.024 7.44 38.128 6.992C37.232 6.512 36.048 6.176 34.576 5.984C33.136 5.76 31.568 5.632 29.872 5.6C28.912 6.432 27.792 7.504 26.512 8.816C25.232 10.128 23.904 11.6 22.528 13.232C21.184 14.832 19.936 16.464 18.784 18.128C17.632 19.792 16.688 21.408 15.952 22.976C15.248 24.544 14.896 25.936 14.896 27.152C14.896 27.76 14.992 28.288 15.184 28.736C15.376 29.152 15.824 29.36 16.528 29.36V29.648C17.584 29.488 18.608 29.376 19.6 29.312C20.592 29.216 21.456 29.168 22.192 29.168C22.416 29.168 22.528 29.296 22.528 29.552C22.528 29.872 22.4 30.032 22.144 30.032C21.088 30.032 19.808 30.24 18.304 30.656C16.8 31.072 15.28 31.68 13.744 32.48C12.208 33.28 10.848 34.256 9.664 35.408ZM34.0683 34.256C33.2363 34.224 32.4683 33.84 31.7643 33.104C31.0603 32.368 30.4203 31.424 29.8443 30.272C29.3003 29.12 28.8043 27.872 28.3563 26.528C27.9403 25.184 27.5883 23.872 27.3003 22.592C27.0123 21.312 26.7723 20.192 26.5803 19.232C26.6443 19.2 26.7083 19.168 26.7723 19.136C26.8363 19.104 26.9003 19.072 26.9643 19.04C26.8363 18.88 26.8683 18.72 27.0603 18.56C27.2843 18.4 27.7483 18.256 28.4523 18.128C30.2763 17.808 32.0683 17.424 33.8283 16.976C35.6203 16.528 37.2843 15.84 38.8203 14.912C40.3563 13.952 41.6523 12.592 42.7083 10.832C43.0923 10.224 43.2843 9.616 43.2843 9.008C43.2843 7.984 42.6763 7.232 41.4603 6.752C40.2443 6.24 38.7563 5.92 36.9963 5.792C36.7723 5.984 36.5643 6.176 36.3723 6.368C36.1803 6.528 36.0043 6.688 35.8443 6.848C35.0123 7.68 34.0203 8.72 32.8683 9.968C31.7163 11.216 30.5163 12.576 29.2683 14.048C28.0203 15.488 26.8683 16.992 25.8123 18.56C24.7563 20.096 23.8923 21.6 23.2203 23.072C22.5483 24.544 22.2123 25.904 22.2123 27.152C22.2123 27.76 22.3083 28.288 22.5003 28.736C22.6923 29.152 23.1403 29.36 23.8443 29.36V29.744C23.6523 29.84 23.4443 29.888 23.2203 29.888C22.6763 29.888 22.1963 29.68 21.7803 29.264C21.3643 28.816 21.0443 28.304 20.8203 27.728C20.5963 27.12 20.4843 26.592 20.4843 26.144C20.4843 25.088 20.7563 23.872 21.3003 22.496C21.8443 21.088 22.5643 19.616 23.4603 18.08C24.3563 16.544 25.3323 15.024 26.3883 13.52C27.4763 11.984 28.5643 10.544 29.6523 9.2C30.7403 7.856 31.7323 6.688 32.6283 5.696C30.6443 5.728 28.7883 5.84 27.0603 6.032C25.3323 6.192 24.1003 6.32 23.3643 6.416C21.9883 6.576 20.5803 6.848 19.1403 7.232C17.7003 7.616 16.3563 8.08 15.1083 8.624C13.8923 9.136 12.9003 9.696 12.1323 10.304C11.3963 10.88 11.0283 11.456 11.0283 12.032C11.0283 12.192 11.1243 12.336 11.3163 12.464C11.5083 12.592 11.7163 12.656 11.9403 12.656C12.0363 12.752 12.0843 12.832 12.0843 12.896C12.0843 13.056 11.9083 13.104 11.5563 13.04C11.2043 12.976 10.7563 12.768 10.2123 12.416C9.70025 12.032 9.23625 11.584 8.82025 11.072C8.43625 10.56 8.24425 10.112 8.24425 9.728C8.24425 9.088 8.61225 8.496 9.34825 7.952C10.1163 7.376 11.1243 6.864 12.3723 6.416C13.6523 5.936 15.0763 5.536 16.6443 5.216C18.2123 4.864 19.8123 4.592 21.4443 4.4C22.5963 4.24 23.9083 4.128 25.3803 4.064C26.8523 3.968 28.3723 3.92 29.9403 3.92C31.3803 3.92 32.7883 3.968 34.1643 4.064L34.3083 3.92C34.1163 3.728 34.0203 3.504 34.0203 3.248C34.0203 2.832 34.2283 2.432 34.6443 2.048C35.0923 1.632 35.5723 1.264 36.0843 0.943999C36.5963 0.591998 36.9963 0.303998 37.2843 0.079999C37.5723 0.079999 37.9723 0.159999 38.4843 0.319999C38.9963 0.447999 39.4443 0.639999 39.8283 0.896C40.2443 1.152 40.4523 1.472 40.4523 1.856C40.4523 2.016 40.4203 2.192 40.3563 2.384C40.2283 2.672 39.9723 3.008 39.5883 3.392C39.2363 3.776 38.8203 4.176 38.3403 4.592C39.1723 4.752 39.9403 4.96 40.6443 5.216C41.3803 5.44 42.0203 5.728 42.5643 6.08C43.3323 6.528 43.7803 6.944 43.9083 7.328C44.0683 7.712 44.1323 8.032 44.1003 8.288C44.0683 8.544 44.1323 8.688 44.2923 8.72C44.8363 9.616 45.1083 10.496 45.1083 11.36C45.1083 12.384 44.7403 13.296 44.0043 14.096C43.3003 14.864 42.4043 15.504 41.3163 16.016C40.2603 16.528 39.1723 16.928 38.0523 17.216C36.9323 17.504 35.9723 17.68 35.1723 17.744C34.6603 17.776 33.9403 17.872 33.0123 18.032C32.0843 18.192 31.1883 18.368 30.3243 18.56V18.608C30.3243 19.12 30.3723 19.92 30.4683 21.008C30.5963 22.064 30.7883 23.232 31.0443 24.512C31.3003 25.792 31.6203 27.024 32.0043 28.208C32.4203 29.392 32.9003 30.368 33.4443 31.136C34.0203 31.872 34.6763 32.24 35.4123 32.24C36.2123 32.24 37.0603 31.744 37.9563 30.752C38.7883 29.824 39.5243 28.88 40.1643 27.92C40.8363 26.96 41.2683 26.368 41.4603 26.144C42.0363 25.344 42.4363 24.944 42.6603 24.944C42.8203 24.944 42.8043 25.216 42.6123 25.76C42.4523 26.272 42.1483 26.864 41.7003 27.536C41.3803 27.952 41.0123 28.464 40.5963 29.072C40.2123 29.68 39.7963 30.304 39.3483 30.944C38.6123 31.936 37.8123 32.736 36.9483 33.344C36.0843 33.984 35.1243 34.288 34.0683 34.256Z" fill="black"/>
</svg>
